HIERARCHY
ROOT Hips
{
	OFFSET 0.000000 0.000000 0.000000
	CHANNELS 6 Xposition Yposition Zposition Zrotation Yrotation Xrotation 
	JOINT LHipJoint
	{
		OFFSET 0.000000 0.000000 0.000000
		CHANNELS 3 Zrotation Yrotation Xrotation
		JOINT LeftUpLeg
		{
			OFFSET 1.363060 -1.794630 0.839290
			CHANNELS 3 Zrotation Yrotation Xrotation
			JOINT LeftLeg
			{
				OFFSET 2.448110 -6.726130 0.000000
				CHANNELS 3 Zrotation Yrotation Xrotation
				JOINT LeftFoot
				{
					OFFSET 2.562200 -7.039590 0.000000
					CHANNELS 3 Zrotation Yrotation Xrotation
					JOINT LeftToeBase
					{
						OFFSET 0.157640 -0.433110 2.322550
						CHANNELS 3 Zrotation Yrotation Xrotation
						End Site
						{
							OFFSET 0.000000 0.000000 0.000000
						}
					}
				}
			}
		}
	}
	JOINT RHipJoint
	{
		OFFSET 0.000000 0.000000 0.000000
		CHANNELS 3 Zrotation Yrotation Xrotation
		JOINT RightUpLeg
		{
			OFFSET -1.305520 -1.794630 0.839290
			CHANNELS 3 Zrotation Yrotation Xrotation
			JOINT RightLeg
			{
				OFFSET -2.542530 -6.985550 0.000000
				CHANNELS 3 Zrotation Yrotation Xrotation
				JOINT RightFoot
				{
					OFFSET -2.568260 -7.056230 0.000000
					CHANNELS 3 Zrotation Yrotation Xrotation
					JOINT RightToeBase
					{
						OFFSET -0.164730 -0.452590 2.363150
						CHANNELS 3 Zrotation Yrotation Xrotation
						End Site
						{
							OFFSET 0.000000 0.000000 0.000000
						}
					}
				}
			}
		}
	}
	JOINT LowerBack
	{
		OFFSET 0.000000 0.000000 0.000000
		CHANNELS 3 Zrotation Yrotation Xrotation
		JOINT Spine
		{
			OFFSET 0.028270 2.035590 -0.193380
			CHANNELS 3 Zrotation Yrotation Xrotation
			JOINT Spine1
			{
				OFFSET 0.056720 2.048850 -0.042750
				CHANNELS 3 Zrotation Yrotation Xrotation
				JOINT Neck
				{
					OFFSET 0.000000 0.000000 0.000000
					CHANNELS 3 Zrotation Yrotation Xrotation
					JOINT Neck1
					{
						OFFSET -0.054170 1.746240 0.172020
						CHANNELS 3 Zrotation Yrotation Xrotation
						JOINT Head
						{
							OFFSET 0.104070 1.761360 -0.123970
							CHANNELS 3 Zrotation Yrotation Xrotation
							End Site
							{
								OFFSET 0.000000 0.000000 0.000000
							}
						}
					}
				}
				JOINT LeftShoulder
				{
					OFFSET 0.000000 0.000000 0.000000
					CHANNELS 3 Zrotation Yrotation Xrotation
					JOINT LeftArm
					{
						OFFSET 3.362410 1.200890 -0.311210
						CHANNELS 3 Zrotation Yrotation Xrotation
						JOINT LeftForeArm
						{
							OFFSET 4.983000 -0.000000 -0.000000
							CHANNELS 3 Zrotation Yrotation Xrotation
							JOINT LeftHand
							{
								OFFSET 3.483560 -0.000000 -0.000000
								CHANNELS 3 Zrotation Yrotation Xrotation
								JOINT LeftFingerBase
								{
									OFFSET 0.000000 0.000000 0.000000
									CHANNELS 3 Zrotation Yrotation Xrotation
									JOINT LeftHandIndex1
									{
										OFFSET 0.715260 -0.000000 -0.000000
										CHANNELS 3 Zrotation Yrotation Xrotation
										End Site
										{
											OFFSET 0.000000 0.000000 0.000000
										}
									}
								}
								JOINT LThumb
								{
									OFFSET 0.000000 0.000000 0.000000
									CHANNELS 3 Zrotation Yrotation Xrotation
									End Site
									{
										OFFSET 0.000000 0.000000 0.000000
									}
								}
							}
						}
					}
				}
				JOINT RightShoulder
				{
					OFFSET 0.000000 0.000000 0.000000
					CHANNELS 3 Zrotation Yrotation Xrotation
					JOINT RightArm
					{
						OFFSET -3.136600 1.374050 -0.404650
						CHANNELS 3 Zrotation Yrotation Xrotation
						JOINT RightForeArm
						{
							OFFSET -5.241900 -0.000000 -0.000000
							CHANNELS 3 Zrotation Yrotation Xrotation
							JOINT RightHand
							{
								OFFSET -3.444170 -0.000000 -0.000000
								CHANNELS 3 Zrotation Yrotation Xrotation
								JOINT RightFingerBase
								{
									OFFSET 0.000000 0.000000 0.000000
									CHANNELS 3 Zrotation Yrotation Xrotation
									JOINT RightHandIndex1
									{
										OFFSET -0.622530 -0.000000 -0.000000
										CHANNELS 3 Zrotation Yrotation Xrotation
										End Site
										{
											OFFSET 0.000000 0.000000 0.000000
										}
									}
								}
								JOINT RThumb
								{
									OFFSET 0.000000 0.000000 0.000000
									CHANNELS 3 Zrotation Yrotation Xrotation
									End Site
									{
										OFFSET 0.000000 0.000000 0.000000
									}
								}
							}
						}
					}
				}
			}
		}
	}
}
MOTION
Frames: 12
Frame Time: 0.008333
1.331820 17.927515 -25.380624 0.446635 -1.455769 4.220232 0.318947 0.202285 0.375179 -23.834111 -5.398077 -17.764527 0.529154 7.784967 21.524074 0.619769 -2.475766 -1.431228 0.024100 1.002400 2.755400 -2.695552 -0.615481 -1.253584 20.407950 -5.001946 -0.885553 -8.096086 -15.827431 53.041597 1.703395 -15.386680 5.248526 -2.999200 -10.693800 31.254100 -3.860286 1.393835 1.461976 1.442619 1.604967 -2.582119 7.585089 0.639754 -1.252187 -6.913247 -1.485876 -13.003532 -2.185423 0.282217 16.410843 -1.369800 -0.794900 10.227800 1.527933 4.114449 -0.733107 -93.417926 9.255861 16.583891 16.639275 -27.395437 -3.877646 0.383799 -0.275013 9.069106 0.810462 41.146553 0.257600 -7.125000 0.000000 0.000000 -46.667500 65.442800 -25.462600 -0.384340 -4.413327 -2.116207 75.529749 7.988758 4.194915 -12.160562 21.985517 -1.875880 1.330248 0.108329 -8.464193 -20.264014 29.248302 -10.886400 7.125000 0.000000 0.000000 5.318300 0.775100 5.413000 
1.340190 17.930271 -25.270286 0.785001 -1.455133 4.079692 0.320482 0.218473 0.380401 -24.353975 -5.137363 -17.207503 0.513200 7.735025 21.393162 0.591072 -2.308651 -1.398415 0.037900 1.257100 3.456500 -2.669374 -0.615071 -1.222399 20.044166 -4.689072 -1.967848 -8.469068 -16.122841 54.455520 1.769935 -15.285404 3.955502 -2.933300 -10.586300 30.897000 -4.317025 1.461418 1.620324 1.391475 1.694057 -2.550976 7.686626 0.678418 -1.271553 -6.826808 -1.394585 -13.054984 -2.134784 0.386835 16.398896 -1.361300 -0.733200 10.238400 1.528405 4.115149 -0.735140 -93.114667 9.198416 17.498796 16.992434 -27.880955 -4.060758 0.386470 -0.263209 8.300894 0.537734 40.499357 0.077400 -7.125000 0.000000 0.000000 -45.895300 64.912500 -24.417200 -0.375393 -4.421460 -2.110711 75.690958 7.472455 3.447625 -12.051501 21.835867 -1.860035 1.316034 0.082743 -8.296517 -18.965215 29.098288 -10.144100 7.125000 0.000000 0.000000 6.073400 0.409800 6.151200 
1.358461 17.923126 -25.153619 1.425202 -0.911239 3.910676 0.320038 0.230928 0.383784 -25.250318 -5.366013 -16.404894 0.515327 7.728987 21.390456 0.623712 -2.485562 -1.946298 0.036500 1.233300 3.391000 -2.622909 -0.607140 -1.204796 19.183047 -5.018934 -2.919107 -8.817544 -16.375438 55.750612 1.747524 -14.725857 2.785666 -2.947700 -10.610000 30.975400 -4.875346 1.256384 1.804813 1.312018 1.423299 -2.493506 7.681609 0.523060 -1.128306 -6.666093 -1.503542 -13.361810 -2.287489 0.234028 16.288946 -1.488900 -0.808800 10.265000 1.509149 4.117922 -0.737795 -92.923813 8.623577 17.809250 17.062760 -27.971316 -4.073541 0.383310 -0.269031 8.276300 0.972744 42.053797 0.374200 -7.125000 0.000000 0.000000 -48.002900 66.105500 -27.040200 -0.384268 -4.447501 -2.105839 75.905553 7.034818 3.618196 -12.028971 21.795488 -1.854862 1.315562 0.104183 -8.410011 -19.209831 28.740917 -10.156300 7.125000 0.000000 0.000000 5.883300 0.071100 5.921900 
1.365810 17.930169 -25.044199 1.085697 -0.423762 3.840554 0.306636 0.246529 0.382065 -24.944513 -5.677456 -15.795860 0.513357 7.727052 21.394218 0.608080 -2.357514 -2.066200 0.040400 1.297000 3.566400 -2.633167 -0.612056 -1.179699 19.720371 -4.983994 -4.021215 -9.087487 -16.587229 56.796384 1.663457 -13.730026 1.253931 -2.451500 -9.749100 28.168000 -4.528813 1.053747 1.803364 1.396855 1.164078 -2.443135 7.790992 0.374847 -0.978446 -7.288918 -1.508654 -13.073677 -1.683164 0.253132 15.983191 -1.078700 -0.778800 10.027500 1.493882 4.161283 -0.717167 -92.846790 8.479700 18.419994 17.347001 -28.364908 -4.225270 0.385854 -0.263738 7.771075 1.214424 41.367403 0.529700 -7.125000 0.000000 0.000000 -46.641500 65.713500 -25.724600 -0.403663 -4.451690 -2.075152 76.018509 6.540330 3.321448 -11.999358 21.767468 -1.851443 1.313222 0.122017 -8.087682 -19.499686 28.264982 -10.147600 7.125000 0.000000 0.000000 5.652400 -0.388000 5.641500 
1.370199 17.924249 -24.947334 1.222598 -0.203814 3.753178 0.322966 0.256301 0.384502 -25.195485 -5.860492 -15.455781 0.539885 7.772550 21.544720 0.626659 -2.513312 -2.007451 0.074300 1.757900 4.837100 -2.612794 -0.615839 -1.137477 19.637507 -4.626712 -5.102334 -9.345673 -16.773569 57.733573 1.629976 -13.384818 0.681094 -2.282600 -9.431400 27.154200 -4.553361 0.894437 2.112215 1.325540 0.949199 -2.486663 7.486036 0.281860 -1.213471 -6.661816 -1.509702 -13.061789 -2.197553 0.161935 16.207050 -1.444600 -0.821800 10.146600 1.496948 4.133888 -0.736715 -92.368499 8.472281 18.558634 17.598285 -28.690059 -4.359451 0.383672 -0.261237 7.335597 2.128689 40.442731 1.118600 -7.125000 0.000000 0.000000 -44.315900 65.341600 -23.844800 -0.378888 -4.469707 -2.078145 76.517799 6.057323 2.749176 -11.836825 21.504930 -1.795150 1.309535 0.081240 -8.228189 -18.339355 28.649720 -9.675400 7.125000 0.000000 0.000000 6.393000 -0.152800 6.416000 
1.379793 17.910673 -24.839547 1.135202 0.085724 3.481336 0.321945 0.267558 0.384458 -25.217800 -5.702917 -14.900696 0.587010 7.868131 21.846834 0.671857 -2.752341 -2.423799 0.085800 1.889800 5.201300 -2.609876 -0.610128 -1.132735 19.751635 -4.434066 -5.776057 -9.541101 -16.916607 58.470098 1.551385 -12.637588 -0.483682 -2.144800 -9.161400 26.301400 -4.443507 0.787576 2.334549 1.339283 0.820511 -2.382463 7.478368 0.186383 -0.991455 -6.892876 -1.549519 -13.233200 -1.848892 0.114298 15.912813 -1.245800 -0.826400 10.038800 1.471016 4.152774 -0.726752 -92.274582 7.775806 18.567426 17.589475 -28.672857 -4.335462 0.384083 -0.265448 7.382673 2.132624 41.704980 1.149100 -7.125000 0.000000 0.000000 -46.348800 66.223600 -26.051800 -0.378642 -4.478602 -2.045860 76.678075 6.098196 1.865760 -11.476048 20.914466 -1.647837 1.314988 0.061074 -7.531562 -18.252080 28.528433 -9.597000 7.125000 0.000000 0.000000 6.429000 -0.285100 6.437700 
1.385305 17.908122 -24.732066 1.392289 0.263539 3.294310 0.321053 0.283204 0.391281 -25.577161 -5.874726 -14.201708 0.609844 7.924203 22.025568 0.652587 -2.573651 -2.789797 0.111600 2.154300 5.932300 -2.597612 -0.604979 -1.102448 19.504802 -4.062463 -6.623611 -9.727937 -17.047832 59.176494 1.384704 -11.370329 -1.885898 -1.634600 -8.059400 22.894800 -4.764533 0.686670 2.571272 1.337715 0.676976 -2.374483 7.639736 0.112034 -1.080926 -6.942633 -1.527307 -13.216412 -1.834240 0.161317 15.956661 -1.229900 -0.808000 10.061100 1.472374 4.156162 -0.725646 -92.194384 7.660815 18.586761 17.819932 -28.978048 -4.456887 0.384739 -0.258375 7.316946 1.454103 41.391091 0.691400 -7.125000 0.000000 0.000000 -46.450800 65.800800 -25.688600 -0.377868 -4.486121 -2.050958 76.725984 5.271625 2.206100 -11.553174 21.045228 -1.702464 1.300703 0.082797 -8.154079 -17.709707 28.080640 -9.177400 7.125000 0.000000 0.000000 6.707400 -0.837100 6.654600 
1.387040 17.893934 -24.641632 1.526152 0.743383 3.337005 0.321112 0.283807 0.376409 -25.784680 -6.349088 -13.884425 0.644297 8.027198 22.317363 0.650500 -2.463948 -3.307342 0.086200 1.894000 5.212800 -2.592077 -0.602317 -1.073655 19.454029 -3.791492 -7.788255 -9.904451 -17.176246 59.824865 1.257117 -10.483935 -2.741296 -1.501900 -7.740700 21.929100 -4.993275 0.541263 2.607464 1.340762 0.482155 -2.327432 7.761176 -0.003128 -0.918124 -6.917534 -1.469651 -13.350027 -1.889525 0.256235 15.918311 -1.253700 -0.769300 10.068300 1.470787 4.168352 -0.718809 -92.068841 7.189496 18.859971 18.015497 -29.262635 -4.585474 0.384462 -0.253055 7.335166 1.855031 39.578828 0.923500 -7.125000 0.000000 0.000000 -43.261300 64.638100 -22.493900 -0.364977 -4.509768 -2.036847 76.972564 5.091957 1.504699 -11.369524 20.736869 -1.622515 1.306984 0.070732 -7.590189 -17.806561 28.036442 -9.216100 7.125000 0.000000 0.000000 6.642000 -0.865800 6.585500 
1.392858 17.886483 -24.528843 1.997455 0.818287 3.190036 0.330291 0.291449 0.384838 -26.416582 -6.058007 -13.419925 0.684721 8.088527 22.523675 0.718126 -2.861329 -3.658587 0.111500 2.153200 5.929200 -2.566736 -0.590600 -1.040436 18.890229 -3.279140 -8.622162 -10.045958 -17.273965 60.352657 1.062732 -9.185999 -4.114130 -1.242800 -7.068800 19.919200 -5.507959 0.505491 2.740930 1.269472 0.422310 -2.335034 7.827820 -0.026682 -1.044435 -7.049737 -1.537635 -13.007480 -1.771640 0.122990 15.763190 -1.189400 -0.816000 9.914800 1.455862 4.174749 -0.721154 -91.769588 7.306728 19.336634 18.400535 -29.751961 -4.765467 0.380661 -0.253809 6.942374 2.433386 40.812590 1.330600 -7.125000 0.000000 0.000000 -44.595300 65.691000 -24.369200 -0.374111 -4.515447 -2.016300 77.257964 4.436223 1.066621 -11.233566 20.490528 -1.571552 1.304363 0.084720 -6.980517 -18.270389 27.459513 -9.267700 7.125000 0.000000 0.000000 6.301800 -1.402700 6.183400 
1.397962 17.858923 -24.425752 2.100674 1.058851 3.121481 0.335747 0.294921 0.376864 -26.624014 -6.229147 -13.045896 0.724421 8.177330 22.793322 0.728718 -2.886516 -3.907740 0.144900 2.453500 6.760700 -2.563660 -0.586409 -1.015950 18.838267 -2.784477 -9.462154 -10.161043 -17.363625 60.782580 0.940180 -8.424799 -5.251578 -1.047900 -6.509800 18.271000 -5.567182 0.386928 2.709424 1.263303 0.271031 -2.293734 7.823316 -0.118049 -0.886135 -7.004326 -1.623363 -12.987081 -1.912646 0.006999 15.775158 -1.272700 -0.877300 9.904400 1.449125 4.189839 -0.718600 -91.611035 7.127511 19.478710 18.630813 -30.054647 -4.879224 0.382135 -0.252803 6.946815 2.254827 41.259460 1.223200 -7.125000 0.000000 0.000000 -45.480500 65.948800 -25.201000 -0.360408 -4.541836 -1.997928 77.423881 4.230979 0.504790 -10.890001 19.896591 -1.439335 1.306651 0.092655 -6.605932 -18.468681 26.962757 -9.209800 7.125000 0.000000 0.000000 6.127000 -1.891000 5.956000 
1.403066 17.847083 -24.337256 2.249298 1.518698 2.876608 0.343639 0.310354 0.380100 -26.873214 -6.465890 -12.398813 0.761960 8.247475 23.021048 0.754946 -3.014816 -4.169474 0.194800 2.842000 7.839100 -2.550651 -0.579021 -0.997083 18.658664 -2.579406 -10.236190 -10.236593 -17.426808 61.074369 0.788125 -7.564769 -6.695902 -0.934100 -6.156300 17.238700 -5.667209 0.225210 3.265930 1.242433 0.044875 -2.264528 7.796727 -0.235619 -1.040545 -7.178313 -1.507754 -13.059806 -1.629805 0.174427 15.652263 -1.091200 -0.788300 9.875300 1.426122 4.184191 -0.720768 -91.484456 6.698322 19.395752 18.830338 -30.289299 -4.974654 0.379353 -0.253216 6.930877 2.369852 41.576294 1.309400 -7.125000 0.000000 0.000000 -45.891700 66.203500 -25.727800 -0.370389 -4.528950 -1.986379 77.547628 3.843396 0.415158 -10.752928 19.655651 -1.396697 1.301321 0.079710 -6.689573 -17.932540 26.924701 -8.936400 7.125000 0.000000 0.000000 6.450700 -2.001400 6.261700 
1.404903 17.832079 -24.234981 2.342986 1.569728 2.816730 0.348338 0.316851 0.380984 -27.044648 -6.766380 -11.994177 0.815871 8.391174 23.446530 0.733882 -2.716275 -4.818088 0.173100 2.680500 7.390400 -2.549027 -0.577603 -0.956953 18.587926 -1.796413 -11.110449 -10.268537 -17.471284 61.209505 0.675618 -6.944425 -7.419039 -0.785800 -5.659100 15.798400 -5.803746 0.135695 3.379838 1.230255 -0.086826 -2.299518 7.817910 -0.289551 -1.197443 -7.071400 -1.292372 -12.862647 -1.799609 0.443854 15.676724 -1.155200 -0.669800 9.846200 1.431893 4.177917 -0.726568 -91.334841 6.883211 19.232604 19.177762 -30.729679 -5.166216 0.376853 -0.250538 6.955323 2.605182 40.931681 1.449600 -7.125000 0.000000 0.000000 -44.613700 65.824800 -24.513400 -0.350592 -4.546303 -1.978831 77.890559 3.278394 -0.444236 -10.565549 19.327292 -1.323275 1.303304 0.044988 -5.696094 -17.786084 26.989637 -8.887700 7.125000 0.000000 0.000000 6.546700 -1.946200 6.362700 
